<?xml version="1.0" standalone="no"?>
<!DOCTYPE svg PUBLIC "-//W3C//DTD SVG 20010904//EN"
 "http://www.w3.org/TR/2001/REC-SVG-20010904/DTD/svg10.dtd">
<svg version="1.0" xmlns="http://www.w3.org/2000/svg"
 width="1280.000000pt" height="1077.000000pt" viewBox="0 0 1280.000000 1077.000000"
 preserveAspectRatio="xMidYMid meet">
<metadata>
Created by potrace 1.15, written by Peter Selinger 2001-2017
</metadata>
<g transform="translate(0.000000,1077.000000) scale(0.100000,-0.100000)"
fill="#4caf50" stroke="none">
<path d="M1509 8779 c-34 -12 -53 -57 -44 -101 16 -81 99 -366 119 -413 33
-73 77 -119 153 -157 36 -18 78 -48 95 -68 60 -72 155 -290 253 -577 143 -424
226 -607 361 -793 257 -358 638 -518 1330 -559 493 -30 974 79 1300 295 203
134 393 402 646 909 52 105 108 219 124 255 42 97 140 255 177 286 108 92 346
128 523 80 73 -19 170 -73 197 -110 48 -64 105 -169 233 -426 267 -537 464
-833 642 -967 192 -145 465 -246 812 -300 144 -23 616 -25 780 -5 336 43 604
130 801 262 88 59 232 208 302 313 128 190 205 365 347 782 98 291 185 484
247 554 21 23 69 59 107 79 110 60 138 111 221 416 41 152 44 204 14 232 -19
18 -42 19 -303 22 -154 2 -522 -1 -816 -8 -294 -6 -778 -15 -1075 -20 -546 -9
-687 -18 -1000 -60 -342 -47 -788 -129 -1035 -190 -307 -77 -335 -81 -585 -87
-276 -6 -376 5 -651 71 -445 107 -975 197 -1424 241 -103 11 -351 19 -740 25
-322 5 -776 14 -1010 20 -525 12 -1066 12 -1101 -1z m2831 -243 c367 -44 648
-112 868 -211 34 -15 60 -31 57 -35 -4 -6 187 -197 254 -253 l34 -28 -6 -87
c-19 -294 -216 -834 -407 -1121 -84 -125 -176 -215 -281 -274 -291 -164 -709
-247 -1094 -218 -450 35 -697 136 -949 387 -217 217 -300 417 -422 1024 -38
193 -47 256 -48 350 -1 101 2 121 23 167 71 158 300 265 646 302 166 18 183
19 695 16 380 -2 526 -6 630 -19z m5430 0 c234 -34 414 -99 513 -186 29 -26
59 -66 79 -108 30 -61 33 -73 32 -162 -1 -158 -119 -730 -195 -947 -64 -183
-140 -305 -263 -428 -286 -283 -616 -398 -1141 -399 -463 -1 -863 127 -1076
344 -201 204 -421 689 -508 1120 -18 91 -36 257 -26 234 3 -6 34 16 69 50 35
34 108 104 162 156 54 52 97 99 96 103 -1 5 2 6 8 2 5 -3 10 -2 10 4 0 30 368
140 600 180 310 53 437 60 1020 56 405 -2 528 -6 620 -19z"/>
<path d="M1483 4184 c-23 -23 -25 -31 -20 -77 7 -59 89 -357 117 -422 28 -64
84 -121 161 -161 54 -29 76 -47 102 -88 88 -134 119 -206 252 -595 159 -467
268 -679 451 -879 l67 -73 -49 -51 c-27 -27 -107 -104 -179 -171 -145 -135
-165 -159 -165 -200 0 -86 206 -167 424 -167 115 0 156 25 319 192 l138 141
87 -21 c404 -99 918 -109 1289 -26 326 73 581 198 748 368 163 165 366 498
570 932 81 172 85 179 112 177 15 -1 64 -3 108 -5 l81 -3 134 67 134 67 100
-54 c138 -73 193 -88 282 -75 38 5 76 10 86 10 11 0 48 -65 125 -222 223 -454
440 -800 591 -939 241 -224 672 -361 1182 -376 285 -8 589 21 813 78 l78 20
130 -135 c163 -169 209 -196 333 -196 95 0 239 28 314 60 64 28 102 70 102
113 0 28 -21 53 -182 209 -101 98 -174 175 -163 171 18 -6 18 -4 -3 20 l-24
25 73 84 c181 208 277 399 439 873 109 319 164 453 228 555 42 66 56 79 117
113 87 47 129 87 160 153 30 64 115 362 122 431 5 46 3 54 -20 77 l-26 26
-403 0 c-222 0 -605 -5 -853 -10 -247 -6 -684 -15 -970 -20 -536 -10 -680 -20
-1025 -70 -265 -38 -762 -131 -960 -180 -297 -73 -345 -81 -561 -87 -286 -8
-388 5 -794 102 -189 45 -638 127 -905 165 -362 52 -493 60 -1060 70 -294 5
-733 14 -976 20 -243 5 -613 10 -823 10 l-382 0 -26 -26z m2837 -228 c198 -23
400 -59 370 -66 -22 -6 -20 -8 25 -24 28 -10 60 -22 73 -27 13 -5 34 -9 48 -9
13 0 32 -4 42 -10 9 -5 44 -19 77 -30 127 -42 169 -59 150 -60 -12 0 -133 16
-270 35 -353 48 -818 108 -1259 160 -209 25 -382 48 -385 51 -13 13 992 -4
1129 -20z m5215 19 c-5 -3 -147 -20 -315 -40 -398 -47 -786 -95 -1200 -150
-318 -43 -420 -53 -320 -34 25 5 54 13 65 18 36 17 236 81 254 81 9 0 22 9 29
20 11 18 10 20 -15 21 -90 4 327 65 529 78 123 8 992 13 973 6z m-4782 -92
c-7 -2 -19 -2 -25 0 -7 3 -2 5 12 5 14 0 19 -2 13 -5z m3244 1 c-3 -3 -12 -4
-19 -1 -8 3 -5 6 6 6 11 1 17 -2 13 -5z m-3200 -10 c-3 -3 -12 -4 -19 -1 -8 3
-5 6 6 6 11 1 17 -2 13 -5z m3150 0 c-3 -3 -12 -4 -19 -1 -8 3 -5 6 6 6 11 1
17 -2 13 -5z m-40 -10 c-3 -3 -12 -4 -19 -1 -8 3 -5 6 6 6 11 1 17 -2 13 -5z
m-4882 -449 c341 -41 748 -91 905 -110 157 -19 294 -35 305 -35 12 0 -4 -13
-40 -33 -167 -90 -475 -343 -993 -813 -145 -131 -287 -260 -317 -287 l-53 -48
-65 75 c-116 133 -180 247 -240 427 -61 182 -165 662 -183 837 l-7 73 34 -5
c19 -4 313 -40 654 -81z m7365 51 c0 -43 -40 -276 -80 -470 -95 -455 -176
-654 -341 -829 l-76 -81 -35 29 c-20 17 -152 136 -294 266 -536 488 -845 745
-1016 842 l-77 43 547 68 c301 37 723 89 937 115 215 27 400 49 413 50 19 1
22 -4 22 -33z m-5127 -325 c126 -16 230 -31 232 -33 7 -7 -31 -155 -65 -258
-77 -227 -187 -464 -288 -620 -31 -47 -92 -121 -137 -166 -73 -73 -95 -88
-216 -147 -181 -89 -370 -144 -609 -178 -174 -25 -515 -12 -705 27 -105 22
-207 54 -203 64 7 21 376 436 517 582 448 464 769 685 1086 748 50 10 106 16
125 13 19 -2 138 -17 263 -32z m2623 9 c287 -66 573 -265 994 -690 151 -152
559 -604 568 -630 5 -13 -117 -48 -243 -70 -595 -103 -1238 36 -1504 326 -149
163 -301 459 -409 794 -35 109 -56 191 -57 225 0 13 478 74 530 68 22 -2 77
-13 121 -23z"/>
<path d="M4628 3893 c6 -2 18 -2 25 0 6 3 1 5 -13 5 -14 0 -19 -2 -12 -5z"/>
<path d="M8128 3903 c7 -3 16 -2 19 1 4 3 -2 6 -13 5 -11 0 -14 -3 -6 -6z"/>
<path d="M8078 3893 c6 -2 18 -2 25 0 6 3 1 5 -13 5 -14 0 -19 -2 -12 -5z"/>
<path d="M5417 3103 c12 -2 25 -13 28 -23 9 -29 32 -32 37 -5 6 27 -8 36 -55
34 -23 -1 -26 -3 -10 -6z"/>
<path d="M7282 3113 c-40 -4 -42 -5 -36 -31 8 -33 14 -41 14 -19 0 10 8 17 20
17 11 0 20 4 20 9 0 5 12 14 28 19 28 11 25 11 -46 5z"/>
</g>
</svg>
